<?xml version="1.0" encoding="utf-8"?><svg version="1.1" id="Layer_1" xmlns="http://www.w3.org/2000/svg" xmlns:xlink="http://www.w3.org/1999/xlink" x="0px" y="0px" viewBox="0 0 99.41 122.88" style="enable-background:new 0 0 99.41 122.88" xml:space="preserve"><g><path d="M65.17,59.23l21.97,25.83l0,0l0,0c3.21,3.8,7.56,9.92,10.1,16.04c1.52,3.67,2.42,7.38,2.1,10.72 c-0.34,3.71-2.08,6.87-5.88,8.93c-1.89,1.03-4.28,1.76-7.25,2.11c-0.1,0.01-0.19,0.02-0.28,0.02v0h-36.2h-36.2 c-0.15,0-0.29-0.01-0.44-0.04c-2.93-0.36-5.28-1.08-7.14-2.09c-3.86-2.09-5.59-5.27-5.91-9.02c-0.28-3.35,0.67-7.1,2.25-10.81 C5.01,94.58,9.64,88.2,12.9,84.34l21.21-25.12V28.65c-0.07-0.34-0.16-0.68-0.25-1.01c-0.12-0.43-0.25-0.85-0.4-1.28 c-0.76-2.19-1.93-4.37-3.52-6.46c-0.84-1.11-0.61-2.69,0.49-3.52c0.46-0.34,0.99-0.51,1.52-0.51v0h8.39 c-2-1.24-3.33-3.45-3.33-5.98c0-3.88,3.15-7.03,7.03-7.03c3.88,0,7.03,3.15,7.03,7.03c0,2.53-1.33,4.74-3.33,5.98H67.5 c1.39,0,2.52,1.13,2.52,2.52c0,0.68-0.27,1.3-0.71,1.75c-1.01,1.15-1.84,2.45-2.51,3.88c-0.68,1.43-1.21,3-1.63,4.7V59.23 L65.17,59.23z M55.75,74.6h16.54L60.9,61.95c-0.48-0.46-0.77-1.1-0.77-1.81v-31.7l0,0c0-0.19,0.02-0.39,0.07-0.58 c0.5-2.11,1.17-4.11,2.05-5.97c0.16-0.33,0.32-0.65,0.49-0.97h-26.2c0.66,1.25,1.22,2.53,1.67,3.83c0.18,0.53,0.35,1.06,0.49,1.59 c0.13,0.47,0.24,0.93,0.34,1.38c0.07,0.23,0.1,0.47,0.1,0.72l0,31.71c0,0.57-0.2,1.15-0.6,1.62C29.51,72.62,12.6,90.32,7.23,102.9 c-3.77,7.04-0.97,16.08,6.72,15.76h35.78h36.08c2.23-0.28,3.96-0.79,5.26-1.5c4.15-1.71,3.84-12.34,2.16-14.14 c-0.32-0.77-0.67-1.53-1.04-2.3c-0.14,0.03-0.3,0.05-0.44,0.05H67.4c-1.27,0-2.32-1.18-2.32-2.62v0c0-1.44,1.04-2.62,2.32-2.62 h21.84c-1.22-1.92-2.51-3.71-3.71-5.26c-0.11,0.02-0.23,0.03-0.34,0.03h-18.2c-7.07,0-6.14-5.24-1.97-5.24h16.17l-4.66-5.47 c-0.29,0.15-0.62,0.24-0.96,0.24H55.75C52.69,79.84,52.69,74.6,55.75,74.6L55.75,74.6z M26.03,25.71c2.67,0,4.83,2.17,4.83,4.83 c0,2.67-2.17,4.83-4.83,4.83c-2.67,0-4.83-2.16-4.83-4.83C21.19,27.88,23.36,25.71,26.03,25.71L26.03,25.71z M22.29,0 c4.73,0,8.57,3.84,8.57,8.57c0,4.73-3.84,8.57-8.57,8.57c-4.73,0-8.57-3.84-8.57-8.57C13.72,3.84,17.56,0,22.29,0L22.29,0z"/></g></svg>